<mxfile host="app.diagrams.net" modified="2023-07-23T06:08:24.173Z" agent="Mozilla/5.0 (X11; Linux x86_64; rv:109.0) Gecko/20100101 Firefox/115.0" etag="ujqA2kkBjNooXM2ECwOW" version="21.6.1" type="device">
  <diagram name="Page-1" id="tZb_qX2O2e7FSVwp5hnz">
    <mxGraphModel dx="4166" dy="2836" grid="1" gridSize="10" guides="1" tooltips="1" connect="1" arrows="1" fold="1" page="1" pageScale="1" pageWidth="850" pageHeight="1100" math="0" shadow="0">
      <root>
        <mxCell id="0" />
        <mxCell id="1" parent="0" />
        <mxCell id="_RU4-OAioINhjp5VLZyr-9" value="" style="rounded=0;whiteSpace=wrap;html=1;fillColor=#04CC18;strokeColor=#d6b656;fillStyle=auto;opacity=10;" vertex="1" parent="1">
          <mxGeometry x="-540" y="-450" width="1700" height="920" as="geometry" />
        </mxCell>
        <mxCell id="_RU4-OAioINhjp5VLZyr-10" value="" style="rounded=0;whiteSpace=wrap;html=1;fillColor=#f8cecc;strokeColor=#b85450;opacity=30;" vertex="1" parent="1">
          <mxGeometry x="-540" y="-290" width="730" height="760" as="geometry" />
        </mxCell>
        <mxCell id="HzstBCcxqd39mWx579nv-25" value="&lt;div&gt;Third Party API&lt;/div&gt;&lt;div&gt;Binane&lt;/div&gt;&lt;div&gt;CurrencyAPI&lt;/div&gt;&lt;div&gt;CoinGecko&lt;br&gt;&lt;/div&gt;" style="rounded=0;whiteSpace=wrap;html=1;fillColor=#eeeeee;strokeColor=#36393d;" parent="1" vertex="1">
          <mxGeometry x="-790" y="30" width="170" height="100" as="geometry" />
        </mxCell>
        <mxCell id="_RU4-OAioINhjp5VLZyr-29" style="edgeStyle=orthogonalEdgeStyle;rounded=0;orthogonalLoop=1;jettySize=auto;html=1;curved=1;" edge="1" parent="1" source="_RU4-OAioINhjp5VLZyr-1" target="_RU4-OAioINhjp5VLZyr-14">
          <mxGeometry relative="1" as="geometry" />
        </mxCell>
        <mxCell id="_RU4-OAioINhjp5VLZyr-1" value="API GATEWAY" style="rounded=0;whiteSpace=wrap;html=1;fontSize=18;fillColor=#dae8fc;strokeColor=#6c8ebf;" vertex="1" parent="1">
          <mxGeometry x="-190" y="-480" width="1070" height="70" as="geometry" />
        </mxCell>
        <mxCell id="_RU4-OAioINhjp5VLZyr-2" value="REST API" style="ellipse;shape=cloud;whiteSpace=wrap;html=1;fillColor=#ffcc99;strokeColor=#36393d;" vertex="1" parent="1">
          <mxGeometry x="-30" y="-850" width="250" height="200" as="geometry" />
        </mxCell>
        <mxCell id="_RU4-OAioINhjp5VLZyr-3" style="edgeStyle=orthogonalEdgeStyle;rounded=0;orthogonalLoop=1;jettySize=auto;html=1;curved=1;exitX=0.55;exitY=0.95;exitDx=0;exitDy=0;exitPerimeter=0;" edge="1" parent="1" source="_RU4-OAioINhjp5VLZyr-2" target="_RU4-OAioINhjp5VLZyr-1">
          <mxGeometry relative="1" as="geometry">
            <mxPoint x="330" y="-680" as="sourcePoint" />
          </mxGeometry>
        </mxCell>
        <mxCell id="_RU4-OAioINhjp5VLZyr-11" value="" style="rounded=0;whiteSpace=wrap;html=1;fillColor=#f8cecc;strokeColor=#b85450;opacity=30;" vertex="1" parent="1">
          <mxGeometry x="425" y="-290" width="730" height="760" as="geometry" />
        </mxCell>
        <mxCell id="_RU4-OAioINhjp5VLZyr-12" value="Currency&amp;nbsp; service" style="text;html=1;strokeColor=none;fillColor=none;align=center;verticalAlign=middle;whiteSpace=wrap;rounded=0;fontSize=16;" vertex="1" parent="1">
          <mxGeometry x="-530" y="-340" width="90" height="50" as="geometry" />
        </mxCell>
        <mxCell id="_RU4-OAioINhjp5VLZyr-13" value="&lt;div&gt;Notifier service&lt;br&gt;&lt;/div&gt;" style="text;html=1;strokeColor=none;fillColor=none;align=center;verticalAlign=middle;whiteSpace=wrap;rounded=0;fontSize=16;" vertex="1" parent="1">
          <mxGeometry x="425" y="-340" width="90" height="50" as="geometry" />
        </mxCell>
        <mxCell id="_RU4-OAioINhjp5VLZyr-14" value="HTTP Server" style="rounded=0;whiteSpace=wrap;html=1;fillColor=#dae8fc;strokeColor=#6c8ebf;" vertex="1" parent="1">
          <mxGeometry x="-420" y="-320" width="420" height="60" as="geometry" />
        </mxCell>
        <mxCell id="_RU4-OAioINhjp5VLZyr-30" style="edgeStyle=orthogonalEdgeStyle;rounded=0;orthogonalLoop=1;jettySize=auto;html=1;exitX=0.5;exitY=0;exitDx=0;exitDy=0;startArrow=classic;startFill=1;endArrow=none;endFill=0;curved=1;" edge="1" parent="1" source="_RU4-OAioINhjp5VLZyr-15" target="_RU4-OAioINhjp5VLZyr-1">
          <mxGeometry relative="1" as="geometry" />
        </mxCell>
        <mxCell id="_RU4-OAioINhjp5VLZyr-43" style="edgeStyle=orthogonalEdgeStyle;rounded=0;orthogonalLoop=1;jettySize=auto;html=1;curved=1;" edge="1" parent="1" source="_RU4-OAioINhjp5VLZyr-15" target="_RU4-OAioINhjp5VLZyr-35">
          <mxGeometry relative="1" as="geometry" />
        </mxCell>
        <mxCell id="_RU4-OAioINhjp5VLZyr-15" value="HTTP Server" style="rounded=0;whiteSpace=wrap;html=1;fillColor=#dae8fc;strokeColor=#6c8ebf;" vertex="1" parent="1">
          <mxGeometry x="590" y="-330" width="420" height="60" as="geometry" />
        </mxCell>
        <mxCell id="_RU4-OAioINhjp5VLZyr-16" value="GRPC Server" style="rounded=0;whiteSpace=wrap;html=1;fillColor=#dae8fc;strokeColor=#6c8ebf;" vertex="1" parent="1">
          <mxGeometry x="170" y="-80" width="50" height="410" as="geometry" />
        </mxCell>
        <mxCell id="_RU4-OAioINhjp5VLZyr-17" value="API" style="swimlane;fontStyle=0;childLayout=stackLayout;horizontal=1;startSize=30;horizontalStack=0;resizeParent=1;resizeParentMax=0;resizeLast=0;collapsible=1;marginBottom=0;whiteSpace=wrap;html=1;" vertex="1" parent="1">
          <mxGeometry x="-420" y="-260" width="190" height="60" as="geometry">
            <mxRectangle x="-420" y="-260" width="60" height="30" as="alternateBounds" />
          </mxGeometry>
        </mxCell>
        <mxCell id="_RU4-OAioINhjp5VLZyr-18" value="GET /api/rate" style="text;strokeColor=none;fillColor=none;align=left;verticalAlign=middle;spacingLeft=4;spacingRight=4;overflow=hidden;points=[[0,0.5],[1,0.5]];portConstraint=eastwest;rotatable=0;whiteSpace=wrap;html=1;" vertex="1" parent="_RU4-OAioINhjp5VLZyr-17">
          <mxGeometry y="30" width="190" height="30" as="geometry" />
        </mxCell>
        <mxCell id="_RU4-OAioINhjp5VLZyr-27" style="edgeStyle=entityRelationEdgeStyle;rounded=0;orthogonalLoop=1;jettySize=auto;html=1;entryX=1;entryY=0.5;entryDx=0;entryDy=0;startArrow=classicThin;startFill=1;strokeWidth=2;" edge="1" parent="1" source="_RU4-OAioINhjp5VLZyr-23" target="HzstBCcxqd39mWx579nv-25">
          <mxGeometry relative="1" as="geometry" />
        </mxCell>
        <mxCell id="_RU4-OAioINhjp5VLZyr-23" value="&lt;div&gt;Service&amp;nbsp;&lt;/div&gt;&lt;div&gt;Business logic&lt;br&gt;&lt;/div&gt;" style="whiteSpace=wrap;html=1;aspect=fixed;fillColor=#e1d5e7;strokeColor=#9673a6;" vertex="1" parent="1">
          <mxGeometry x="-260" width="170" height="170" as="geometry" />
        </mxCell>
        <mxCell id="_RU4-OAioINhjp5VLZyr-24" value="" style="endArrow=classic;html=1;rounded=1;strokeWidth=2;edgeStyle=orthogonalEdgeStyle;curved=1;" edge="1" parent="1" source="_RU4-OAioINhjp5VLZyr-14" target="_RU4-OAioINhjp5VLZyr-23">
          <mxGeometry width="50" height="50" relative="1" as="geometry">
            <mxPoint x="-260" y="-60" as="sourcePoint" />
            <mxPoint x="-210" y="-110" as="targetPoint" />
          </mxGeometry>
        </mxCell>
        <mxCell id="_RU4-OAioINhjp5VLZyr-28" value="" style="endArrow=oval;dashed=1;html=1;dashPattern=1 3;strokeWidth=2;rounded=0;exitX=1;exitY=0.5;exitDx=0;exitDy=0;entryX=-0.032;entryY=0.549;entryDx=0;entryDy=0;entryPerimeter=0;startArrow=oval;startFill=0;endFill=0;" edge="1" parent="1" source="_RU4-OAioINhjp5VLZyr-23" target="_RU4-OAioINhjp5VLZyr-16">
          <mxGeometry width="50" height="50" relative="1" as="geometry">
            <mxPoint x="120" y="110" as="sourcePoint" />
            <mxPoint x="170" y="60" as="targetPoint" />
          </mxGeometry>
        </mxCell>
        <mxCell id="HzstBCcxqd39mWx579nv-1" value="File Storage" style="shape=datastore;whiteSpace=wrap;html=1;fillColor=#fad7ac;strokeColor=#b46504;" parent="1" vertex="1">
          <mxGeometry x="580" y="380" width="90" height="90" as="geometry" />
        </mxCell>
        <mxCell id="_RU4-OAioINhjp5VLZyr-31" value="API" style="swimlane;fontStyle=0;childLayout=stackLayout;horizontal=1;startSize=30;horizontalStack=0;resizeParent=1;resizeParentMax=0;resizeLast=0;collapsible=1;marginBottom=0;whiteSpace=wrap;html=1;" vertex="1" parent="1">
          <mxGeometry x="590" y="-270" width="190" height="90" as="geometry">
            <mxRectangle x="-420" y="-260" width="60" height="30" as="alternateBounds" />
          </mxGeometry>
        </mxCell>
        <mxCell id="_RU4-OAioINhjp5VLZyr-32" value="&lt;div&gt;POST /api/subscribe&lt;/div&gt;&lt;div&gt;(form:email={your_email}&lt;/div&gt;" style="text;strokeColor=none;fillColor=none;align=left;verticalAlign=middle;spacingLeft=4;spacingRight=4;overflow=hidden;points=[[0,0.5],[1,0.5]];portConstraint=eastwest;rotatable=0;whiteSpace=wrap;html=1;" vertex="1" parent="_RU4-OAioINhjp5VLZyr-31">
          <mxGeometry y="30" width="190" height="30" as="geometry" />
        </mxCell>
        <mxCell id="_RU4-OAioINhjp5VLZyr-33" value="POST /api/sendEmails" style="text;strokeColor=none;fillColor=none;align=left;verticalAlign=middle;spacingLeft=4;spacingRight=4;overflow=hidden;points=[[0,0.5],[1,0.5]];portConstraint=eastwest;rotatable=0;whiteSpace=wrap;html=1;labelBorderColor=none;" vertex="1" parent="_RU4-OAioINhjp5VLZyr-31">
          <mxGeometry y="60" width="190" height="30" as="geometry" />
        </mxCell>
        <mxCell id="_RU4-OAioINhjp5VLZyr-34" value="" style="endArrow=none;html=1;rounded=0;exitX=0.003;exitY=0.012;exitDx=0;exitDy=0;exitPerimeter=0;entryX=1.006;entryY=0.026;entryDx=0;entryDy=0;entryPerimeter=0;" edge="1" parent="_RU4-OAioINhjp5VLZyr-31" source="_RU4-OAioINhjp5VLZyr-33" target="_RU4-OAioINhjp5VLZyr-33">
          <mxGeometry width="50" height="50" relative="1" as="geometry">
            <mxPoint x="-10" y="120" as="sourcePoint" />
            <mxPoint x="40" y="70" as="targetPoint" />
          </mxGeometry>
        </mxCell>
        <mxCell id="_RU4-OAioINhjp5VLZyr-45" style="edgeStyle=orthogonalEdgeStyle;rounded=0;orthogonalLoop=1;jettySize=auto;html=1;entryX=-0.024;entryY=0.507;entryDx=0;entryDy=0;entryPerimeter=0;curved=1;" edge="1" parent="1" source="_RU4-OAioINhjp5VLZyr-35" target="_RU4-OAioINhjp5VLZyr-44">
          <mxGeometry relative="1" as="geometry" />
        </mxCell>
        <mxCell id="_RU4-OAioINhjp5VLZyr-35" value="&lt;div&gt;Service&amp;nbsp;&lt;/div&gt;&lt;div&gt;Business logic&lt;br&gt;&lt;/div&gt;" style="whiteSpace=wrap;html=1;aspect=fixed;fillColor=#e1d5e7;strokeColor=#9673a6;" vertex="1" parent="1">
          <mxGeometry x="770" y="-35" width="170" height="170" as="geometry" />
        </mxCell>
        <mxCell id="_RU4-OAioINhjp5VLZyr-36" value="Repository" style="rounded=1;whiteSpace=wrap;html=1;fillColor=#f8cecc;strokeColor=#b85450;" vertex="1" parent="1">
          <mxGeometry x="507.5" y="250" width="235" height="60" as="geometry" />
        </mxCell>
        <mxCell id="_RU4-OAioINhjp5VLZyr-38" value="" style="endArrow=classic;html=1;rounded=0;exitX=0.5;exitY=1;exitDx=0;exitDy=0;entryX=0.5;entryY=0;entryDx=0;entryDy=0;" edge="1" parent="1" source="_RU4-OAioINhjp5VLZyr-36" target="HzstBCcxqd39mWx579nv-1">
          <mxGeometry width="50" height="50" relative="1" as="geometry">
            <mxPoint x="720" y="350" as="sourcePoint" />
            <mxPoint x="770" y="300" as="targetPoint" />
          </mxGeometry>
        </mxCell>
        <mxCell id="_RU4-OAioINhjp5VLZyr-39" value="" style="endArrow=classic;html=1;rounded=0;entryX=0.5;entryY=0;entryDx=0;entryDy=0;exitX=0.5;exitY=1;exitDx=0;exitDy=0;edgeStyle=orthogonalEdgeStyle;curved=1;" edge="1" parent="1" source="_RU4-OAioINhjp5VLZyr-35" target="_RU4-OAioINhjp5VLZyr-36">
          <mxGeometry width="50" height="50" relative="1" as="geometry">
            <mxPoint x="720" y="210" as="sourcePoint" />
            <mxPoint x="770" y="160" as="targetPoint" />
          </mxGeometry>
        </mxCell>
        <mxCell id="_RU4-OAioINhjp5VLZyr-40" value="Adapter" style="rounded=1;whiteSpace=wrap;html=1;fillColor=#f8cecc;strokeColor=#b85450;" vertex="1" parent="1">
          <mxGeometry x="470" y="-60" width="50" height="220" as="geometry" />
        </mxCell>
        <mxCell id="_RU4-OAioINhjp5VLZyr-41" value="" style="endArrow=classic;html=1;rounded=0;exitX=0;exitY=0.5;exitDx=0;exitDy=0;entryX=1.017;entryY=0.529;entryDx=0;entryDy=0;entryPerimeter=0;" edge="1" parent="1" source="_RU4-OAioINhjp5VLZyr-35" target="_RU4-OAioINhjp5VLZyr-40">
          <mxGeometry width="50" height="50" relative="1" as="geometry">
            <mxPoint x="520" y="90" as="sourcePoint" />
            <mxPoint x="570" y="40" as="targetPoint" />
          </mxGeometry>
        </mxCell>
        <mxCell id="_RU4-OAioINhjp5VLZyr-42" value="" style="endArrow=classic;html=1;rounded=0;entryX=1.042;entryY=0.548;entryDx=0;entryDy=0;entryPerimeter=0;exitX=0;exitY=0.5;exitDx=0;exitDy=0;edgeStyle=orthogonalEdgeStyle;curved=1;" edge="1" parent="1" source="_RU4-OAioINhjp5VLZyr-40" target="_RU4-OAioINhjp5VLZyr-16">
          <mxGeometry width="50" height="50" relative="1" as="geometry">
            <mxPoint x="430" y="90" as="sourcePoint" />
            <mxPoint x="480" y="40" as="targetPoint" />
          </mxGeometry>
        </mxCell>
        <mxCell id="_RU4-OAioINhjp5VLZyr-44" value="&lt;div&gt;Third Party API&lt;/div&gt;&lt;div&gt;SMTP email sender&lt;br&gt;&lt;/div&gt;" style="rounded=0;whiteSpace=wrap;html=1;fillColor=#eeeeee;strokeColor=#36393d;" vertex="1" parent="1">
          <mxGeometry x="1220" y="-60" width="170" height="100" as="geometry" />
        </mxCell>
      </root>
    </mxGraphModel>
  </diagram>
</mxfile>
